<svg width="18" height="12" viewBox="0 0 18 12" fill="none" xmlns="http://www.w3.org/2000/svg">
<path d="M0.827892 11.534C0.749279 11.5894 0.656969 11.6222 0.561023 11.6287C0.465077 11.6353 0.369178 11.6153 0.283778 11.5711C0.198378 11.5269 0.126754 11.4601 0.0767146 11.378C0.0266749 11.2958 0.000139423 11.2016 7.96004e-08 11.1054V0.525601C-5.29018e-05 0.429344 0.0263431 0.334922 0.0763058 0.252647C0.126269 0.170372 0.197877 0.103406 0.283312 0.0590624C0.368747 0.0147187 0.464723 -0.00529802 0.560761 0.00119765C0.656799 0.00769332 0.749206 0.040452 0.827892 0.0958962L8.32199 5.38579C8.39071 5.43429 8.44678 5.49859 8.48549 5.57328C8.52419 5.64796 8.54439 5.73085 8.54439 5.81497C8.54439 5.89908 8.52419 5.98197 8.48549 6.05666C8.44678 6.13134 8.39071 6.19564 8.32199 6.24415L0.827892 11.534ZM9.45561 0.525601C9.45556 0.429344 9.48196 0.334922 9.53192 0.252647C9.58188 0.170372 9.65349 0.103406 9.73892 0.0590624C9.82436 0.0147187 9.92034 -0.00529802 10.0164 0.00119765C10.1124 0.00769332 10.2048 0.040452 10.2835 0.0958962L17.7776 5.38579C17.8463 5.43429 17.9024 5.49859 17.9411 5.57328C17.9798 5.64796 18 5.73085 18 5.81497C18 5.89908 17.9798 5.98197 17.9411 6.05666C17.9024 6.13134 17.8463 6.19564 17.7776 6.24415L10.2835 11.534C10.2049 11.5894 10.1126 11.6222 10.0166 11.6287C9.92069 11.6353 9.82479 11.6153 9.73939 11.5711C9.65399 11.5269 9.58237 11.4601 9.53233 11.378C9.48229 11.2958 9.45575 11.2016 9.45561 11.1054V0.525601Z" fill="#666666"/>
</svg>
