<svg width="20" height="23" viewBox="0 0 20 23" fill="none" xmlns="http://www.w3.org/2000/svg">
<path d="M14.5 1V5.5M5.5 1V5.5M1 10H19M8.875 14.5H10V17.875M1 5.5C1 4.90326 1.23705 4.33097 1.65901 3.90901C2.08097 3.48705 2.65326 3.25 3.25 3.25H16.75C17.3467 3.25 17.919 3.48705 18.341 3.90901C18.7629 4.33097 19 4.90326 19 5.5V19C19 19.5967 18.7629 20.169 18.341 20.591C17.919 21.0129 17.3467 21.25 16.75 21.25H3.25C2.65326 21.25 2.08097 21.0129 1.65901 20.591C1.23705 20.169 1 19.5967 1 19V5.5Z" stroke="#666666" stroke-width="2" stroke-linecap="round" stroke-linejoin="round"/>
</svg>
