<svg width="18" height="19" viewBox="0 0 18 19" fill="none" xmlns="http://www.w3.org/2000/svg">
<path d="M1 0.5C0.447716 0.5 0 0.947715 0 1.5V17.5C0 18.0523 0.447715 18.5 1 18.5H17C17.5523 18.5 18 18.0523 18 17.5V8.97401C18 8.13048 17.0199 7.6659 16.3669 8.19992C16.1347 8.38984 16 8.674 16 8.97401V15.5C16 16.0523 15.5523 16.5 15 16.5H3C2.44772 16.5 2 16.0523 2 15.5V3.5C2 2.94772 2.44772 2.5 3 2.5H10.8014C11.4254 2.5 11.897 1.93472 11.7852 1.32078C11.6986 0.845446 11.2845 0.5 10.8014 0.5H1ZM16.7011 2.1161C16.3063 1.76918 15.7104 1.78707 15.3371 2.15703L9.65191 7.79174C9.25796 8.1822 8.62148 8.17742 8.23343 7.7811L6.71215 6.22735C6.32091 5.82776 5.678 5.82668 5.28543 6.22497L4.92128 6.59442C4.53553 6.98578 4.53784 7.61507 4.92645 8.00359L8.23021 11.3066C8.62075 11.6971 9.25385 11.697 9.64434 11.3065L11.3235 9.62732L17.0821 3.86779C17.4905 3.45933 17.469 2.79082 17.0351 2.40955L16.7011 2.1161Z" fill="#666666"/>
</svg>
