<svg width="18" height="18" viewBox="0 0 18 18" fill="none" xmlns="http://www.w3.org/2000/svg">
<path d="M9.08579 6C9.08579 6.55228 9.5335 7 10.0858 7H13.6747C14.6171 7 15.0364 5.81553 14.3037 5.22265L10.7149 2.31834C10.061 1.78921 9.08579 2.25456 9.08579 3.09568V6ZM2 0H11.5858C11.851 0 12.1054 0.105357 12.2929 0.292893L17.7071 5.70711C17.8946 5.89464 18 6.149 18 6.41421V16C18 16.5304 17.7893 17.0391 17.4142 17.4142C17.0391 17.7893 16.5304 18 16 18H2C1.46957 18 0.960859 17.7893 0.585786 17.4142C0.210714 17.0391 0 16.5304 0 16V2C0 0.89 0.89 0 2 0ZM3.61803 9C3.23926 9 2.893 9.214 2.72361 9.55279C2.39116 10.2177 2.87465 11 3.61803 11H15C15.5523 11 16 10.5523 16 10C16 9.44771 15.5523 9 15 9H3.61803ZM3.5 13C2.94772 13 2.5 13.4477 2.5 14C2.5 14.5523 2.94772 15 3.5 15H10.5C11.0523 15 11.5 14.5523 11.5 14C11.5 13.4477 11.0523 13 10.5 13H3.5Z" fill="#666666"/>
</svg>
